<svg xmlns="http://www.w3.org/2000/svg" width="1200" height="720" viewBox="0 0 1200 720">
  <rect width="1200" height="720" rx="34" fill="#0b0f0c"/>
  <rect x="28" y="28" width="1144" height="54" rx="16" fill="#121816" opacity=".96"/>
  <circle cx="58" cy="55" r="7" fill="#35f27f"/><circle cx="82" cy="55" r="7" fill="#6b756e"/><circle cx="106" cy="55" r="7" fill="#6b756e"/>
  <text x="600" y="62" text-anchor="middle" font-family="Arial,sans-serif" font-size="17" fill="#9da9a2">Origen Fitness</text>
    <text x="70" y="145" font-family="Arial" font-size="34" font-weight="800" fill="#fff">También se diseña para móvil</text>
    <rect x="130" y="190" width="250" height="440" rx="42" fill="#101410" stroke="#35f27f" stroke-width="3"/>
    <rect x="155" y="225" width="200" height="365" rx="22" fill="#0d1311"/>
    <rect x="175" y="250" width="160" height="120" rx="18" fill="#35f27f" opacity=".28"/>
    <rect x="175" y="395" width="145" height="18" rx="9" fill="#334139"/>
    <rect x="175" y="425" width="125" height="18" rx="9" fill="#26322b"/>
    <rect x="175" y="485" width="130" height="42" rx="12" fill="#35f27f"/>
    <text x="500" y="300" font-family="Arial" font-size="50" font-weight="800" fill="#fff">Responsive</text>
    <text x="500" y="350" font-family="Arial" font-size="22" fill="#aab5ae">La experiencia se adapta a móvil, tablet y PC.</text>
    <rect x="500" y="400" width="500" height="1" fill="#28342d"/>
    <text x="500" y="445" font-family="Arial" font-size="18" fill="#35f27f">✓ navegación cómoda</text>
    <text x="500" y="485" font-family="Arial" font-size="18" fill="#35f27f">✓ textos y botones legibles</text>
    <text x="500" y="525" font-family="Arial" font-size="18" fill="#35f27f">✓ diseño consistente</text>
    </svg>