<svg xmlns="http://www.w3.org/2000/svg" width="1200" height="720" viewBox="0 0 1200 720">
  <rect width="1200" height="720" rx="34" fill="#0b0f0c"/>
  <rect x="28" y="28" width="1144" height="54" rx="16" fill="#121816" opacity=".96"/>
  <circle cx="58" cy="55" r="7" fill="#35f27f"/><circle cx="82" cy="55" r="7" fill="#6b756e"/><circle cx="106" cy="55" r="7" fill="#6b756e"/>
  <text x="600" y="62" text-anchor="middle" font-family="Arial,sans-serif" font-size="17" fill="#9da9a2">Origen Fitness</text>
    <text x="70" y="145" font-family="Arial" font-size="34" font-weight="800" fill="#fff">Secciones que explican y convierten</text>
    <g transform="translate(70,190)">
      <rect width="330" height="420" rx="24" fill="#101713"/><rect x="24" y="24" width="282" height="170" rx="18" fill="#35f27f" opacity=".18"/><text x="24" y="235" font-family="Arial" font-size="24" font-weight="700" fill="#fff">Servicio principal</text><text x="24" y="270" font-family="Arial" font-size="15" fill="#7b867f">Explicación clara y visual.</text>
      <rect x="365" width="330" height="420" rx="24" fill="#101713"/><rect x="389" y="24" width="282" height="170" rx="18" fill="#35f27f" opacity=".32"/><text x="389" y="235" font-family="Arial" font-size="24" font-weight="700" fill="#fff">Contenido visual</text><text x="389" y="270" font-family="Arial" font-size="15" fill="#7b867f">Galerías, promos y novedades.</text>
      <rect x="730" width="330" height="420" rx="24" fill="#101713"/><rect x="754" y="24" width="282" height="170" rx="18" fill="#35f27f" opacity=".48"/><text x="754" y="235" font-family="Arial" font-size="24" font-weight="700" fill="#fff">Contacto directo</text><text x="754" y="270" font-family="Arial" font-size="15" fill="#7b867f">Botones y acciones visibles.</text>
    </g></svg>